<svg xmlns="http://www.w3.org/2000/svg" xmlns:xlink="http://www.w3.org/1999/xlink" width="403.2" height="473.6" viewBox="0 0 403.2 473.6">
  <defs>
    <linearGradient id="linear-gradient" x1="0.5" y1="-0.105" x2="0.482" y2="1.326" gradientUnits="objectBoundingBox">
      <stop offset="0" stop-color="#ffb1b1"/>
      <stop offset="1" stop-color="#ff7575"/>
    </linearGradient>
    <radialGradient id="radial-gradient" cx="0.5" cy="0.5" r="0.5" gradientUnits="objectBoundingBox">
      <stop offset="0" stop-color="#081e43"/>
      <stop offset="1" stop-color="#0c2143"/>
    </radialGradient>
    <linearGradient id="linear-gradient-2" x1="0.5" x2="0.5" y2="1" gradientUnits="objectBoundingBox">
      <stop offset="0" stop-color="#fd3a00"/>
      <stop offset="1" stop-color="#c31c1c"/>
    </linearGradient>
    <linearGradient id="linear-gradient-5" x1="0.5" x2="0.5" y2="1" gradientUnits="objectBoundingBox">
      <stop offset="0" stop-color="#ffa090"/>
      <stop offset="1" stop-color="#ec5238"/>
    </linearGradient>
    <radialGradient id="radial-gradient-2" cx="0.5" cy="0.5" r="0.5" gradientUnits="objectBoundingBox">
      <stop offset="0" stop-color="#88003e"/>
      <stop offset="1" stop-color="#b90859"/>
    </radialGradient>
    <linearGradient id="linear-gradient-7" x1="0.5" x2="0.5" y2="1" gradientUnits="objectBoundingBox">
      <stop offset="0" stop-color="#f3907f"/>
      <stop offset="1" stop-color="#db533d"/>
    </linearGradient>
    <linearGradient id="linear-gradient-8" x2="0.744" y2="0.916" xlink:href="#linear-gradient-7"/>
    <linearGradient id="linear-gradient-10" x2="0.224" xlink:href="#linear-gradient-7"/>
    <linearGradient id="linear-gradient-11" x1="0.117" y1="0.5" x2="1" y2="0.5" gradientUnits="objectBoundingBox">
      <stop offset="0" stop-color="#fa957e"/>
      <stop offset="1" stop-color="#e97154"/>
    </linearGradient>
    <linearGradient id="linear-gradient-12" x1="0.5" y1="-0.853" x2="0.5" y2="1" gradientUnits="objectBoundingBox">
      <stop offset="0" stop-color="#faa697"/>
      <stop offset="1" stop-color="#ff8773"/>
    </linearGradient>
    <linearGradient id="linear-gradient-13" x1="0.5" y1="0" xlink:href="#linear-gradient-12"/>
    <linearGradient id="linear-gradient-14" x1="0.337" y1="0.075" x2="0.77" y2="0.964" xlink:href="#linear-gradient-12"/>
    <linearGradient id="linear-gradient-17" x1="0.072" y1="0.5" x2="1.066" y2="0.5" gradientUnits="objectBoundingBox">
      <stop offset="0" stop-color="red" stop-opacity="0.439"/>
      <stop offset="0.408" stop-color="red"/>
      <stop offset="1" stop-color="red"/>
    </linearGradient>
  </defs>
  <g id="Group_593" data-name="Group 593" transform="translate(14.1 -338.4)">
    <path id="Path_215" data-name="Path 215" d="M2441.2,1163.426s54.4-77.7,121.6-37.511,120.025-28.223,177.624-52.338,103.976,52.338,103.976,52.338v218.832H2441.2Z" transform="translate(-2455.3 -532.747)" fill="url(#linear-gradient)"/>
    <g id="Group_34" data-name="Group 34" transform="translate(8.436 129.8)">
      <path id="Union_1" data-name="Union 1" d="M-1887.889-655.466c-3,.024-65.685.52-69.589,0-4-.533-7.466-4.8-4.266-10.933s7.2-16.533,4.266-23.2,0-9.6,6.666-14.666,7.734-12,6.4-19.2.533-9.6,6.4-15.2,6.933-12.533,6.666-19.467,0-8,7.467-12.533,5.333-4.8,10.133-19.2c4.511-13.533,23.476-14.112,25.745-14.133h.222c2.269.021,21.234.6,25.745,14.133,4.8,14.4,2.667,14.666,10.133,19.2s7.734,5.6,7.467,12.533.8,13.867,6.666,19.467,7.734,8,6.4,15.2-.266,14.133,6.4,19.2,9.6,8,6.667,14.666,1.067,17.067,4.266,23.2-.266,10.4-4.266,10.933c-1.333.178-9.523.237-19.848.237C-1858.059-655.229-1885.915-655.45-1887.889-655.466Z" transform="translate(2075.278 1016.6)" fill="url(#radial-gradient)"/>
      <path id="Union_1_-_Outline" data-name="Union 1 - Outline" d="M-1838.148-655.229c10.325,0,18.515-.059,19.848-.237,4-.533,7.466-4.8,4.266-10.933s-7.2-16.533-4.266-23.2,0-9.6-6.667-14.666-7.733-12-6.4-19.2-.534-9.6-6.4-15.2-6.934-12.533-6.666-19.467,0-8-7.467-12.533-5.333-4.8-10.133-19.2c-4.51-13.533-23.476-14.112-25.745-14.133H-1888c-2.269.021-21.234.6-25.745,14.133-4.8,14.4-2.667,14.666-10.133,19.2s-7.734,5.6-7.467,12.533-.8,13.867-6.666,19.467-7.734,8-6.4,15.2.266,14.133-6.4,19.2-9.6,8-6.666,14.666-1.067,17.067-4.266,23.2.266,10.4,4.266,10.933c1.334.178,9.522.237,19.85.237,19.911,0,47.765-.22,49.739-.236,1.974.016,29.83.236,49.741.236m0,4h0c-19.592,0-46.563-.211-49.741-.236-1.6.013-29.8.236-49.739.236-18.338,0-19.717-.184-20.379-.272a10.342,10.342,0,0,1-7.832-5.445c-1.72-3.315-1.526-7.329.548-11.3a49.726,49.726,0,0,0,4.095-10.505c.966-3.928.986-7.121.056-9.234a15.632,15.632,0,0,1-1.471-5.9,10.887,10.887,0,0,1,1.354-5.56c1.64-3.007,4.6-5.4,8.024-8,4.616-3.508,6.169-8.366,4.888-15.287-.829-4.474-.586-7.653.812-10.629,1.374-2.924,3.77-5.339,6.759-8.193,4.1-3.912,5.723-8.823,5.431-16.42a37.908,37.908,0,0,1,.018-4.762,10.856,10.856,0,0,1,1.336-4.536c1.417-2.492,3.818-4.248,8.035-6.809,2.37-1.439,3.4-2.23,3.937-3.021.605-.893,1.045-2.47,1.773-5.081.6-2.139,1.413-5.068,2.7-8.943a20.794,20.794,0,0,1,6.9-9.773,29.8,29.8,0,0,1,9.355-4.895,45.5,45.5,0,0,1,9.282-1.954v-.193l3.955-.053h.313l3.947.053v.192a45.5,45.5,0,0,1,9.289,1.955,29.8,29.8,0,0,1,9.354,4.895,20.8,20.8,0,0,1,6.9,9.773c1.291,3.874,2.108,6.8,2.7,8.941.728,2.613,1.168,4.189,1.773,5.083.536.792,1.567,1.582,3.937,3.022,4.217,2.56,6.618,4.316,8.035,6.808a10.854,10.854,0,0,1,1.336,4.536,37.885,37.885,0,0,1,.018,4.762c-.293,7.6,1.332,12.506,5.431,16.42,2.989,2.854,5.385,5.269,6.758,8.192,1.4,2.977,1.641,6.156.813,10.63-1.281,6.921.272,11.779,4.887,15.287,3.42,2.6,6.384,5,8.025,8a10.886,10.886,0,0,1,1.354,5.56,15.628,15.628,0,0,1-1.471,5.9c-.93,2.113-.91,5.306.056,9.234a49.731,49.731,0,0,0,4.1,10.506c2.074,3.974,2.268,7.989.548,11.3a10.342,10.342,0,0,1-7.833,5.445C-1818.433-651.413-1819.811-651.229-1838.148-651.229Z" transform="translate(2075.278 1016.6)" fill="#0b316f"/>
      <g id="Group_18" data-name="Group 18" transform="translate(53.264 399.876)">
        <path id="Path_62" data-name="Path 62" d="M336.036,322.111,320.68,347.072l29.458,34.983h29.71l27.7-35.576L390.4,322.111Z" transform="translate(-229.287 -322.111)" fill="url(#linear-gradient-2)"/>
        <path id="Path_63" data-name="Path 63" d="M311.259,349.645s-66.074,5.1-82.647,22.415-7.019,28.771,7.366,36.094c20.257,10.313,80.062,8.1,117.927-4.419l6.192-36.094Z" transform="translate(-219.866 -324.684)" fill="url(#linear-gradient-2)"/>
        <path id="Path_64" data-name="Path 64" d="M409.184,348.692s69.191,5.969,85.766,23.279,7.019,28.771-7.367,36.094c-20.257,10.313-93.254,8.6-131.12-3.921l7-36.593Z" transform="translate(-232.631 -324.595)" fill="url(#linear-gradient-2)"/>
        <g id="Group_16" data-name="Group 16" transform="translate(144.843 30.159)">
          <path id="Path_65" data-name="Path 65" d="M429.955,378.849l-14.876-1.769-2.27-5.866,5.826-2.587s-.8-8.293,6.324-9.671,15.633,4.37,23.912.662c7.639-3.423,16.985-6.567,25.7-1.835a3.086,3.086,0,0,1,1.452,3.631l-.034.106a3.091,3.091,0,0,1-3.289,2.126,22.575,22.575,0,0,0-13.979,3.037c-5.486,3.331-18.756,8.483-28.772,12.167Z" transform="translate(-382.74 -355.379)" fill="url(#linear-gradient-5)"/>
          <path id="Line_1" data-name="Line 1" d="M0,3.519a.648.648,0,0,1-.644-.584.648.648,0,0,1,.581-.708L29.142-.644a.648.648,0,0,1,.708.581.648.648,0,0,1-.581.708L.063,3.516C.042,3.518.02,3.519,0,3.519Z" transform="translate(0 16.66)" fill="#f75c5c"/>
        </g>
        <g id="Group_17" data-name="Group 17" transform="translate(26.715 28.316)">
          <path id="Path_66" data-name="Path 66" d="M356.27,409.739a.649.649,0,0,1-.146-.017,145.141,145.141,0,0,1-17.346-5.286c-4.933-1.818-10.091-3.957-15.332-6.355-8.923-4.084-15.079-7.558-15.14-7.593l-.573-.325,1.786-3.033a.648.648,0,0,1,1.116.657l-1.114,1.893c1.722.947,7.163,3.881,14.478,7.228,8.181,3.744,20.447,8.788,32.418,11.552a.648.648,0,0,1-.145,1.279Z" transform="translate(-254.876 -356.535)" fill="#f75c5c"/>
          <path id="Path_67" data-name="Path 67" d="M455.165,391.217a.644.644,0,0,1-.345-.1c-6.227-3.926-17.183-7.109-32.563-9.461a433.677,433.677,0,0,0-45.173-4.024c-30.019-1.331-57.01-.525-57.279-.517a.648.648,0,0,1-.04-1.295c.27-.008,27.309-.815,57.377.518a434.946,434.946,0,0,1,45.311,4.037,162.111,162.111,0,0,1,19.138,3.962,54.331,54.331,0,0,1,13.92,5.683.648.648,0,0,1-.346,1.2Z" transform="translate(-255.919 -355.484)" fill="#f75c5c"/>
          <path id="Path_68" data-name="Path 68" d="M261.927,384.245a.648.648,0,0,1-.275-1.234,66.06,66.06,0,0,1,11.551-3.867,48.549,48.549,0,0,1,10.813-1.382h.147a26.461,26.461,0,0,1,10.878,2.091.648.648,0,0,1-.531,1.181c-6.715-3.016-15.119-2.01-20.986-.635a64.707,64.707,0,0,0-11.323,3.785A.645.645,0,0,1,261.927,384.245Z" transform="translate(-250.512 -355.689)" fill="#f75c5c"/>
          <path id="Path_69" data-name="Path 69" d="M306.069,384.954,313.2,374.1l-7.133-3.861s1.448-8.205-5.551-10.135-15.926,3.137-23.889-1.207c-7.35-4.01-16.421-7.873-25.483-3.836a3.085,3.085,0,0,0-1.732,3.507l.024.108a3.093,3.093,0,0,0,3.114,2.376,22.579,22.579,0,0,1,13.7,4.119C275.121,371.548,306.069,384.954,306.069,384.954Z" transform="translate(-249.335 -353.347)" fill="url(#linear-gradient-5)"/>
          <path id="Line_2" data-name="Line 2" d="M16.3,12.451a.645.645,0,0,1-.379-.123L-.38.524a.648.648,0,0,1-.145-.9.648.648,0,0,1,.9-.145l16.3,11.8a.648.648,0,0,1-.38,1.172Z" transform="translate(80.971 8.707)" fill="#f75c5c"/>
        </g>
      </g>
      <g id="Group_27" data-name="Group 27" transform="translate(101.291 302.805)">
        <path id="Path_71" data-name="Path 71" d="M379.787,216.333l26.226,8.4c4.9,1.8,6.154,7.24,4.87,12.3l-14.439,62.393h-64.8l-14.836-63.973c-.788-3.519.936-8.659,4.287-9.993l28.366-10.429Z" transform="translate(-276.934 -215.034)" fill="url(#radial-gradient-2)"/>
        <path id="Path_72" data-name="Path 72" d="M407.571,257.64l27.414,61.316a12.659,12.659,0,0,0,14.595,8.065h0a12.652,12.652,0,0,0,9.25-16.57c-5.39-15.293-21.623-46.229-27.182-61.538a12.8,12.8,0,0,0-18.359-6.761h0A12.805,12.805,0,0,0,407.571,257.64Z" transform="translate(-285.363 -217.411)" fill="url(#linear-gradient-7)"/>
        <g id="Group_19" data-name="Group 19" transform="translate(115.623 10.429)">
          <path id="Path_73" data-name="Path 73" d="M414.8,226.538s8.969.808,20.088,30.167l-26.028,13.517-8.47-25.187Z" transform="translate(-400.386 -226.538)" fill="url(#radial-gradient-2)"/>
          <path id="Line_3" data-name="Line 3" d="M0,17.309a.65.65,0,0,1-.14-.015.648.648,0,0,1-.493-.772L3.035-.139a.648.648,0,0,1,.772-.493A.648.648,0,0,1,4.3.139L.632,16.8A.648.648,0,0,1,0,17.309Z" transform="translate(10.26 25.533)" fill="#462c3b"/>
        </g>
        <g id="Group_21" data-name="Group 21" transform="translate(86.97 24.83)">
          <path id="Path_74" data-name="Path 74" d="M438.053,301.52c-.743-.248-.324,1.344-66.028-26.478l-2.818,3.773c-.137,3.906.759,7.658,3.183,9.249l64.925,40.931Z" transform="translate(-368.818 -245.472)" fill="url(#linear-gradient-8)"/>
          <path id="Path_75" data-name="Path 75" d="M369.169,275.767l-.39-32.032a1.3,1.3,0,0,1,1.3-1.311h0a1.3,1.3,0,0,1,1.28,1.1l8.685,37.938Z" transform="translate(-368.779 -242.424)" fill="#f08877"/>
          <path id="Line_4" data-name="Line 4" d="M12.671,5.43-.172.444.172-.444,13.015,4.541Z" transform="translate(50.319 49.129)" fill="#dc9c82"/>
        </g>
        <path id="Path_76" data-name="Path 76" d="M324.828,257.64l-27.415,61.316a12.658,12.658,0,0,1-14.594,8.065h0a12.653,12.653,0,0,1-9.251-16.57c5.39-15.293,21.624-46.229,27.182-61.538a12.8,12.8,0,0,1,18.359-6.761h0A12.8,12.8,0,0,1,324.828,257.64Z" transform="translate(-272.844 -217.411)" fill="url(#linear-gradient-7)"/>
        <g id="Group_23" data-name="Group 23" transform="translate(24.071 10.429)">
          <path id="Path_77" data-name="Path 77" d="M319.485,226.538s-8.969.808-20.089,30.167l26.029,13.517,8.469-25.187Z" transform="translate(-299.396 -226.538)" fill="url(#radial-gradient-2)"/>
          <path id="Line_5" data-name="Line 5" d="M3.667,17.309a.648.648,0,0,1-.632-.508L-.632.139A.648.648,0,0,1-.139-.632a.648.648,0,0,1,.772.493L4.3,16.522a.648.648,0,0,1-.633.787Z" transform="translate(19.788 25.533)" fill="#462c3b"/>
        </g>
        <g id="Group_25" data-name="Group 25" transform="translate(17.987 24.83)">
          <path id="Path_78" data-name="Path 78" d="M292.685,301.52c.744-.248.324,1.344,66.028-26.478l2.818,3.773c.27,4.425-1.053,7.843-3.477,9.434l-64.631,40.745Z" transform="translate(-292.685 -245.472)" fill="url(#linear-gradient-10)"/>
          <path id="Path_79" data-name="Path 79" d="M367.507,275.767l.389-32.032a1.294,1.294,0,0,0-1.3-1.311h0a1.3,1.3,0,0,0-1.28,1.1l-8.684,37.938Z" transform="translate(-298.661 -242.424)" fill="#f08877"/>
          <path id="Line_6" data-name="Line 6" d="M-.179,34.164-.476,0,.476,0l.3,34.16Z" transform="translate(69.08 0.802)" fill="#dc9c82"/>
          <path id="Line_7" data-name="Line 7" d="M.18,5.427-.18,4.544,12.077-.441l.359.883Z" transform="translate(6.66 49.129)" fill="#dc9c82"/>
        </g>
        <path id="Path_103" data-name="Path 103" d="M58.709,98V82.8h51.2V98Z" fill="url(#linear-gradient-11)"/>
      </g>
      <g id="Group_33" data-name="Group 33" transform="translate(156.661 215.818)">
        <path id="Path_80" data-name="Path 80" d="M355.88,212.044l-20.155,8.17a65.194,65.194,0,0,0,29.314,7.511,71.072,71.072,0,0,0,31.417-7.079l-21.033-9.465Z" transform="translate(-334.09 -127.687)" fill="url(#linear-gradient-12)"/>
        <path id="Path_81" data-name="Path 81" d="M377.338,190.014a55.858,55.858,0,0,0-7.457.915c-4.343.808-7.89-1.475-8.763,1.466-.018.059-3.547-2.941-3.547-2.941l-1.815,28.94s11.538,7.035,24.087-.364Z" transform="translate(-335.962 -125.657)" fill="url(#linear-gradient-13)"/>
        <path id="Path_82" data-name="Path 82" d="M354.725,185.565s5.243,12.994,23.423,13.9l-1.522-17.34Z" transform="translate(-335.866 -124.972)" fill="#472d3c"/>
        <path id="Path_84" data-name="Path 84" d="M389.87,148.011a102.542,102.542,0,0,1-2.725,23.323c-1.333,5.65-5.084,9.6-10.384,12.776l-.966.578a18.609,18.609,0,0,1-18.55.2h0c-5.743-3.268-9.764-7.577-11-13.639a149.815,149.815,0,0,1-2.5-23.239s-2.141-23.785,22.733-23.323S389.87,148.011,389.87,148.011Z" transform="translate(-334.836 -119.603)" fill="url(#linear-gradient-14)"/>
        <g id="Group_29" data-name="Group 29" transform="translate(0 37.695)">
          <path id="Path_85" data-name="Path 85" d="M345.545,175.079c-4.2,4.055-14.655-7.862-10.775-12.618,3.575-4.384,8.655.619,8.655.619l.86,4.471,1.282,6.019.33,1.35Z" transform="translate(-333.922 -160.66)" fill="url(#linear-gradient-13)"/>
        </g>
        <g id="Group_30" data-name="Group 30" transform="translate(51.943 37.201)">
          <path id="Path_86" data-name="Path 86" d="M391.573,174.733c4.447,3.5,15.226-9.465,10.914-13.211s-9.011,1.179-9.011,1.179l-.78,4.485-1.172,6.039-.306,1.354Z" transform="translate(-391.219 -160.116)" fill="url(#linear-gradient-13)"/>
        </g>
        <g id="Group_32" data-name="Group 32" transform="translate(14.409 28.42)">
          <path id="Path_89" data-name="Path 89" d="M368.536,169.966a.777.777,0,0,1-.413-1.436l.928-.582-.33-2.521a.777.777,0,0,1,1.541-.2l.459,3.51-1.773,1.111A.773.773,0,0,1,368.536,169.966Z" transform="translate(-351.565 -151.822)" fill="#0a2043"/>
          <g id="Group_31" data-name="Group 31" transform="translate(9.945 22.416)">
            <path id="Path_90" data-name="Path 90" d="M360.786,176.261h14.579s-1.64,2.391-7.29,2.391C361.981,178.652,360.786,176.261,360.786,176.261Z" transform="translate(-360.786 -173.26)" fill="#dc5a66"/>
            <path id="Path_91" data-name="Path 91" d="M360.786,176.055l3.331-1.722a2.99,2.99,0,0,1,2.294-.1l1.758.676,1.573-.629a2.99,2.99,0,0,1,2.313.081l3.312,1.691Z" transform="translate(-360.786 -173.053)" fill="#dc5a66"/>
          </g>
          <path id="Path_92" data-name="Path 92" d="M357.077,161.979a6.3,6.3,0,0,1-3.592-1.182.777.777,0,0,1,.875-1.284,4.35,4.35,0,0,0,5.284.048.777.777,0,1,1,1.006,1.185,5.846,5.846,0,0,1-3.573,1.233Z" transform="translate(-350.2 -151.339)" fill="#0b2043"/>
          <path id="Path_93" data-name="Path 93" d="M379.57,161.979a6.3,6.3,0,0,1-3.593-1.182.777.777,0,1,1,.875-1.284,4.369,4.369,0,0,0,5.28.051.777.777,0,1,1,1.009,1.182,5.844,5.844,0,0,1-3.572,1.233Z" transform="translate(-352.302 -151.339)" fill="#0b2043"/>
          <path id="Path_94" data-name="Path 94" d="M373.917,151.944s7.413.384,12.355,3.388c0,0,0-3.113-4.707-4.487A8.515,8.515,0,0,0,373.917,151.944Z" transform="translate(-352.068 -150.43)" fill="#0a2043"/>
          <path id="Path_95" data-name="Path 95" d="M362.171,151.944s-7.413.384-12.355,3.388c0,0,0-3.113,4.707-4.487A8.515,8.515,0,0,1,362.171,151.944Z" transform="translate(-349.816 -150.43)" fill="#0a2043"/>
        </g>
        <path id="Path_98" data-name="Path 98" d="M343.209,170.2c-.022-.108-.575-2.645-4.335-2.568h-.013a.648.648,0,0,1-.013-1.3,5.718,5.718,0,0,1,4.639,1.731,4.225,4.225,0,0,1,.995,1.892l-1.274.234Z" transform="translate(-334.383 -123.556)" fill="#091f43"/>
        <path id="Path_99" data-name="Path 99" d="M394.265,170.2v-.005l-1.274-.234a4.226,4.226,0,0,1,1-1.892,5.721,5.721,0,0,1,4.639-1.731.648.648,0,0,1-.026,1.295C394.838,167.552,394.287,170.087,394.265,170.2Z" transform="translate(-339.502 -123.556)" fill="#091f43"/>
      </g>
      <path id="Path_102" data-name="Path 102" d="M2159.04,1035.2c-20.6-3-11.29,6.2-21.49,8.4s-9.05,14.95-9.05,14.95-5.26-11.99-3.06-22.39,12.96-17.24,21.76-17.44,19.8,1.84,23.2,7.84,8.7,16.19,3.7,31.99S2179.64,1038.2,2159.04,1035.2Z" transform="translate(-1963 -804)" fill="url(#radial-gradient)"/>
    </g>
    <ellipse id="Ellipse_33" data-name="Ellipse 33" cx="103" cy="10.5" rx="103" ry="10.5" transform="translate(84.7 637.8)" opacity="0.3" fill="url(#linear-gradient-17)"/>
    <g id="Group_457" data-name="Group 457" transform="translate(12.577 530.386)">
      <g id="Group_74" data-name="Group 74" transform="translate(0 0)">
        <g id="Group_71" data-name="Group 71" transform="translate(21.172)">
          <path id="Path_155" data-name="Path 155" d="M159.858,267.175c-11.085-11.287-19.331,3.051-18.18,17.441,1.092,13.644,12.853,60.461,10.673,80.155h4.5C167.87,339.516,174.048,281.624,159.858,267.175Z" transform="translate(-141.571 -263.115)" fill="#447fad" fill-rule="evenodd"/>
          <path id="Path_156" data-name="Path 156" d="M157.732,366.417c10.723-39.807-2.851-94.831-2.9-95.019a.637.637,0,0,0-1.238.3c.046.187,13.637,55.274,2.832,94.719Z" transform="translate(-144.105 -264.76)" fill="#80bee8" fill-rule="evenodd"/>
        </g>
        <g id="Group_72" data-name="Group 72" transform="translate(0 27.375)">
          <path id="Path_157" data-name="Path 157" d="M126.849,299.369c-11.68-6.189-14.626,7.314-10.072,18.486,3.773,9.258,20.446,36.643,26.749,54.238h5.938C149.969,347.777,140.638,306.675,126.849,299.369Z" transform="translate(-114.736 -297.811)" fill="#80aae8" fill-rule="evenodd"/>
          <path id="Path_158" data-name="Path 158" d="M148.835,373.5c-3.864-32.887-25.734-68.631-25.813-68.762a.532.532,0,1,0-.91.552c.078.129,21.809,35.644,25.668,68.209Z" transform="translate(-116.276 -299.219)" fill="#3493d1" fill-rule="evenodd"/>
        </g>
        <g id="Group_73" data-name="Group 73" transform="translate(36.216 43.444)">
          <path id="Path_159" data-name="Path 159" d="M185.9,319.275c11.321-4.946,13.115,7.846,8.086,17.935-3.4,6.827-15.667,24.309-23.927,39.18h-9.425C163.861,353.893,174.2,324.387,185.9,319.275Z" transform="translate(-160.638 -318.178)" fill="#e37979" fill-rule="evenodd"/>
          <path id="Path_160" data-name="Path 160" d="M164.9,377.717c8.037-27.255,26.549-52.942,26.623-53.045a.5.5,0,0,1,.81.578c-.073.1-18.389,25.522-26.408,52.467Z" transform="translate(-161.538 -319.504)" fill="#d2eaf9" fill-rule="evenodd"/>
        </g>
      </g>
      <g id="Group_75" data-name="Group 75" transform="translate(19.907 92.658)">
        <rect id="Rectangle_1" data-name="Rectangle 1" width="36.777" height="11.797" rx="2.286" fill="#151f42"/>
        <path id="Path_161" data-name="Path 161" d="M147.943,389h21.791l5.689,5.135-4.648,17.9a51.111,51.111,0,0,1-11.586,1.5,61.851,61.851,0,0,1-12.288-1.5l-4.648-17.9Z" transform="translate(-140.449 -382.335)" fill="#151f42" fill-rule="evenodd"/>
        <path id="Path_162" data-name="Path 162" d="M175.423,395.5l-.955,3.681H143.209l-.956-3.681Z" transform="translate(-140.449 -383.709)" fill="#01051a" fill-rule="evenodd"/>
      </g>
    </g>
    <ellipse id="Ellipse_35" data-name="Ellipse 35" cx="24.5" cy="4" rx="24.5" ry="4" transform="translate(24.7 650.8)" opacity="0.3" fill="url(#linear-gradient-17)"/>
  </g>
</svg>
