<svg xmlns="http://www.w3.org/2000/svg" xmlns:xlink="http://www.w3.org/1999/xlink" width="438.132" height="310.106" viewBox="0 0 438.132 310.106"><defs><radialGradient id="radial-gradient" cx=".5" cy=".5" r=".5" gradientUnits="objectBoundingBox"><stop offset="0" stop-color="#081e43"/><stop offset="1" stop-color="#0c2143"/></radialGradient><linearGradient id="linear-gradient" x1=".451" x2=".5" y1=".834" y2="-.327" gradientUnits="objectBoundingBox"><stop offset="0" stop-color="#8e99e0"/><stop offset="1" stop-color="#3b4ed4"/></linearGradient><linearGradient id="linear-gradient-2" x1=".5" x2=".5" y1="0" y2="1" xlink:href="#linear-gradient"/><linearGradient id="linear-gradient-4" x1=".5" x2=".5" y2="1" gradientUnits="objectBoundingBox"><stop offset="0" stop-color="#ffa090"/><stop offset="1" stop-color="#ec5238"/></linearGradient><radialGradient id="radial-gradient-2" cx=".5" cy=".5" r=".5" gradientUnits="objectBoundingBox"><stop offset="0" stop-color="#fff"/><stop offset="1" stop-color="#ffc2de"/></radialGradient><linearGradient id="linear-gradient-6" x1=".5" x2=".5" y2="1" gradientUnits="objectBoundingBox"><stop offset="0" stop-color="#f3907f"/><stop offset="1" stop-color="#db533d"/></linearGradient><linearGradient id="linear-gradient-7" x2=".744" y2=".916" xlink:href="#linear-gradient-6"/><linearGradient id="linear-gradient-9" x2=".224" xlink:href="#linear-gradient-6"/><linearGradient id="linear-gradient-10" x1=".117" x2="1" y1=".5" y2=".5" gradientUnits="objectBoundingBox"><stop offset="0" stop-color="#fa957e"/><stop offset="1" stop-color="#e97154"/></linearGradient><linearGradient id="linear-gradient-11" x1=".5" x2=".5" y1="-.853" y2="1" gradientUnits="objectBoundingBox"><stop offset="0" stop-color="#faa697"/><stop offset="1" stop-color="#ff8773"/></linearGradient><linearGradient id="linear-gradient-12" x1=".5" y1="0" xlink:href="#linear-gradient-11"/><linearGradient id="linear-gradient-13" x1=".337" x2=".77" y1=".075" y2=".964" xlink:href="#linear-gradient-11"/></defs><g id="Group_595" data-name="Group 595" transform="translate(147.569 87.106)"><g id="Group_462" data-name="Group 462" transform="translate(125.67 51.5)"><path id="Union_1" fill="url(#radial-gradient)" d="M45.691,90.356c-1.823.015-39.957.316-42.333,0-2.433-.324-4.542-2.92-2.6-6.651s4.379-10.057,2.6-14.113,0-5.84,4.055-8.922,4.7-7.3,3.894-11.68.324-5.84,3.893-9.246S19.418,32.12,19.256,27.9s0-4.867,4.543-7.624,3.244-2.92,6.164-11.679C32.707.366,44.244.013,45.624,0h.135c1.38.013,12.917.365,15.661,8.6,2.92,8.76,1.622,8.922,6.164,11.679s4.7,3.406,4.542,7.624.487,8.436,4.055,11.842,4.7,4.866,3.893,9.246-.162,8.6,3.893,11.68,5.84,4.867,4.056,8.922.649,10.382,2.6,14.113-.162,6.327-2.6,6.651c-.811.108-5.793.144-12.074.144C63.837,90.5,46.892,90.366,45.691,90.356Z" data-name="Union 1" transform="translate(35.9 0)"/><path id="Union_1_-_Outline" fill="#0b316f" d="M75.95,91.5h0c-11.915,0-28.377-.129-30.258-.144-.841.007-18.069.144-30.258.144-9.913,0-11.714-.087-12.207-.153A4.857,4.857,0,0,1-.455,88.8a5.937,5.937,0,0,1,.332-5.553c1.068-2.048,4.411-9.056,2.566-13.248-.986-2.242-1.026-4.055-.125-5.707.862-1.58,2.543-2.934,4.49-4.413,3.243-2.464,4.392-5.965,3.516-10.7a8.756,8.756,0,0,1,.382-5.6,16.732,16.732,0,0,1,3.8-4.556c3.567-3.405,3.876-7.71,3.746-11.08-.084-2.191-.1-3.6.637-4.892.707-1.243,2.031-2.2,4.386-3.625,3.011-1.828,3.094-2.126,4.11-5.769.379-1.358.85-3.048,1.624-5.372A11.24,11.24,0,0,1,32.749,3,16.706,16.706,0,0,1,37.992.267,27.117,27.117,0,0,1,44.624-.962V-.988L45.613-1h.157l.988.012v.026A27.118,27.118,0,0,1,53.39.267,16.706,16.706,0,0,1,58.634,3a11.239,11.239,0,0,1,3.735,5.279c.774,2.323,1.245,4.013,1.624,5.37,1.016,3.644,1.1,3.942,4.111,5.77,2.354,1.429,3.679,2.382,4.386,3.625.735,1.293.721,2.7.637,4.892-.13,3.37.179,7.674,3.747,11.08a16.737,16.737,0,0,1,3.8,4.556,8.756,8.756,0,0,1,.382,5.6c-.877,4.737.273,8.237,3.515,10.7,1.947,1.48,3.629,2.833,4.491,4.413.9,1.652.862,3.466-.125,5.707-1.845,4.192,1.5,11.2,2.566,13.248a5.937,5.937,0,0,1,.332,5.553,4.857,4.857,0,0,1-3.682,2.552C87.663,91.413,85.862,91.5,75.95,91.5ZM45.691,89.356H45.7c1.84.015,18.325.144,30.25.144,9.507,0,11.563-.085,11.942-.136a2.856,2.856,0,0,0,2.171-1.49,3.972,3.972,0,0,0-.33-3.707c-1.5-2.881-4.767-10.108-2.624-14.978.925-2.1.62-3.173.2-3.944-.608-1.115-1.907-2.23-3.945-3.779a11.147,11.147,0,0,1-4.128-5.875,14.652,14.652,0,0,1-.144-6.783,6.878,6.878,0,0,0-.226-4.381,14.925,14.925,0,0,0-3.374-3.96,13.36,13.36,0,0,1-3.7-6.059,20.1,20.1,0,0,1-.668-6.545c.148-3.853.16-4.168-4.062-6.731a10.323,10.323,0,0,1-3.456-2.847,13.7,13.7,0,0,1-1.544-4.1c-.373-1.336-.836-3-1.595-5.275C57.943,1.33,46.99,1.012,45.75,1h-.117c-1.241.011-12.193.33-14.721,7.914-.759,2.276-1.223,3.94-1.6,5.276a13.7,13.7,0,0,1-1.543,4.095,10.321,10.321,0,0,1-3.455,2.847c-4.222,2.563-4.21,2.878-4.062,6.731a20.106,20.106,0,0,1-.668,6.545,13.359,13.359,0,0,1-3.7,6.059,14.92,14.92,0,0,0-3.375,3.96,6.878,6.878,0,0,0-.226,4.381,14.652,14.652,0,0,1-.144,6.783,11.147,11.147,0,0,1-4.128,5.875c-2.038,1.549-3.336,2.664-3.945,3.779-.42.771-.725,1.842.2,3.944,2.143,4.871-1.121,12.1-2.624,14.978a3.972,3.972,0,0,0-.33,3.707,2.855,2.855,0,0,0,2.171,1.49c.38.051,2.436.136,11.943.136,12.222,0,29.519-.138,30.25-.144Z" data-name="Union 1 - Outline" transform="translate(35.9 0)"/><g id="Group_18" data-name="Group 18" transform="translate(0 113.923)"><path id="Path_62" fill="url(#linear-gradient)" d="M330.022,322.111,320.68,337.3l17.92,21.281h18.073l16.853-21.641-10.433-14.823Z" data-name="Path 62" transform="translate(-265.084 -322.111)"/><path id="Path_63" fill="url(#linear-gradient-2)" d="M275.462,349.645s-40.194,3.105-50.276,13.636-4.27,17.5,4.481,21.957c12.323,6.273,48.7,4.929,71.737-2.688l3.767-21.957Z" data-name="Path 63" transform="translate(-219.866 -334.461)"/><path id="Path_64" fill="url(#linear-gradient-2)" d="M388.535,348.692s42.09,3.631,52.173,14.161,4.27,17.5-4.481,21.957c-12.323,6.274-56.728,5.233-79.762-2.385l4.259-22.26Z" data-name="Path 64" transform="translate(-281.134 -334.034)"/><g id="Group_16" data-name="Group 16" transform="translate(88.111 18.346)"><path id="Path_65" fill="url(#linear-gradient-4)" d="M423.239,369.656l-9.049-1.076-1.381-3.569,3.544-1.574s-.489-5.045,3.847-5.883,9.51,2.659,14.546.4c4.647-2.082,10.332-3.995,15.636-1.116a1.877,1.877,0,0,1,.883,2.209l-.02.065a1.88,1.88,0,0,1-2,1.293,13.733,13.733,0,0,0-8.5,1.847c-3.337,2.026-11.409,5.16-17.5,7.4Z" data-name="Path 65" transform="translate(-394.517 -355.379)"/><path id="Line_1" fill="#3b4ed4" d="M0,2.394A.648.648,0,0,1-.644,1.81.648.648,0,0,1-.063,1.1L17.7-.644a.648.648,0,0,1,.708.581.648.648,0,0,1-.581.708L.063,2.391C.042,2.393.02,2.394,0,2.394Z" data-name="Line 1" transform="translate(0 10.134)"/></g><g id="Group_17" data-name="Group 17" transform="translate(15.141 17.225)"><path id="Path_66" fill="#3b4ed4" d="M337.609,401.266a.649.649,0,0,1-.146-.017,110.137,110.137,0,0,1-19.927-7.1c-5.438-2.489-9.192-4.608-9.229-4.629l-.573-.324,1.217-2.067a.648.648,0,1,1,1.116.657l-.545.926c1.244.679,4.407,2.362,8.566,4.265a108.82,108.82,0,0,0,19.667,7.008.648.648,0,0,1-.145,1.279Z" data-name="Path 66" transform="translate(-275.928 -368.647)"/><path id="Path_67" fill="#3b4ed4" d="M402.139,385.595a.645.645,0,0,1-.345-.1c-3.758-2.37-10.39-4.294-19.712-5.719a263.551,263.551,0,0,0-27.452-2.445c-18.252-.809-34.661-.319-34.825-.314a.648.648,0,1,1-.04-1.294c.164-.005,16.622-.5,34.922.315a264.835,264.835,0,0,1,27.591,2.459c9.5,1.452,16.3,3.439,20.207,5.9a.648.648,0,0,1-.346,1.2Z" data-name="Path 67" transform="translate(-280.934 -363.604)"/><path id="Path_68" fill="#3b4ed4" d="M261.927,382.213a.648.648,0,0,1-.275-1.234,39.653,39.653,0,0,1,7.077-2.369,29.787,29.787,0,0,1,6.634-.847,16.391,16.391,0,0,1,6.812,1.294.648.648,0,1,1-.531,1.181c-4.018-1.8-9.067-1.2-12.595-.373a39.122,39.122,0,0,0-6.848,2.287A.645.645,0,0,1,261.927,382.213Z" data-name="Path 68" transform="translate(-254.982 -364.588)"/><path id="Path_69" fill="url(#linear-gradient-4)" d="M283.847,372.574l4.339-6.606-4.339-2.349s.881-4.991-3.377-6.165-9.688,1.908-14.532-.734c-4.471-2.439-9.989-4.789-15.5-2.333a1.877,1.877,0,0,0-1.053,2.133l.015.066a1.882,1.882,0,0,0,1.894,1.445,13.735,13.735,0,0,1,8.334,2.506C265.021,364.419,283.847,372.574,283.847,372.574Z" data-name="Path 69" transform="translate(-249.335 -353.347)"/><path id="Line_2" fill="#3b4ed4" d="M9.913,7.828A.645.645,0,0,1,9.534,7.7L-.38.524a.648.648,0,0,1-.145-.9.648.648,0,0,1,.9-.145l9.914,7.18a.648.648,0,0,1-.38,1.172Z" data-name="Line 2" transform="translate(49.256 5.296)"/></g></g><g id="Group_27" data-name="Group 27" transform="translate(29.216 54.873)"><path id="Path_71" fill="url(#radial-gradient-2)" d="M355.045,215.824,371,220.934c2.983,1.093,3.743,4.4,2.963,7.484l-8.783,37.955H325.759l-9.025-38.916c-.479-2.141.57-5.268,2.608-6.079l17.255-6.344Z" data-name="Path 71" transform="translate(-292.478 -215.034)"/><path id="Path_72" fill="url(#linear-gradient-6)" d="M407.272,250.916l16.676,37.3a7.7,7.7,0,0,0,8.878,4.906h0a7.7,7.7,0,0,0,5.627-10.08c-3.279-9.3-13.154-28.122-16.535-37.435a7.788,7.788,0,0,0-11.168-4.113h0A7.79,7.79,0,0,0,407.272,250.916Z" data-name="Path 72" transform="translate(-332.93 -226.445)"/><g id="Group_19" data-name="Group 19" transform="translate(70.336 6.344)"><path id="Path_73" fill="url(#radial-gradient-2)" d="M409.152,226.538s5.456.491,12.22,18.351l-15.833,8.222-5.152-15.321Z" data-name="Path 73" transform="translate(-400.386 -226.538)"/><path id="Line_3" fill="#afafaf" d="M0,10.783a.65.65,0,0,1-.14-.015A.648.648,0,0,1-.632,10L1.6-.139A.648.648,0,0,1,2.37-.632a.648.648,0,0,1,.493.772L.632,10.274A.648.648,0,0,1,0,10.783Z" data-name="Line 3" transform="translate(6.241 15.532)"/></g><g id="Group_21" data-name="Group 21" transform="translate(52.905 15.105)"><path id="Path_74" fill="url(#linear-gradient-7)" d="M411.082,291.149c-.452-.151-.2.817-40.166-16.107l-1.714,2.3c-.083,2.376.462,4.658,1.936,5.626l39.5,24.9Z" data-name="Path 74" transform="translate(-368.965 -257.054)"/><path id="Path_75" fill="#f08877" d="M369.016,262.707l-.237-19.486a.788.788,0,0,1,.788-.8h0a.787.787,0,0,1,.779.666l5.283,23.078Z" data-name="Path 75" transform="translate(-368.779 -242.424)"/><path id="Line_4" fill="#dc9c82" d="M7.64,3.477-.172.444.172-.444,7.985,2.589Z" data-name="Line 4" transform="translate(30.61 29.886)"/></g><path id="Path_76" fill="url(#linear-gradient-6)" d="M304.467,250.916l-16.677,37.3a7.7,7.7,0,0,1-8.878,4.906h0a7.7,7.7,0,0,1-5.628-10.08c3.279-9.3,13.154-28.122,16.535-37.435a7.788,7.788,0,0,1,11.168-4.113h0A7.789,7.789,0,0,1,304.467,250.916Z" data-name="Path 76" transform="translate(-272.844 -226.445)"/><g id="Group_23" data-name="Group 23" transform="translate(14.643 6.344)"><path id="Path_77" fill="url(#radial-gradient-2)" d="M311.617,226.538s-5.456.491-12.221,18.351l15.834,8.222,5.152-15.321Z" data-name="Path 77" transform="translate(-299.396 -226.538)"/><path id="Line_5" fill="#afafaf" d="M2.23,10.783a.648.648,0,0,1-.632-.508L-.632.139A.648.648,0,0,1-.139-.632a.648.648,0,0,1,.772.493L2.863,10a.648.648,0,0,1-.633.787Z" data-name="Line 5" transform="translate(12.038 15.532)"/></g><g id="Group_25" data-name="Group 25" transform="translate(10.942 15.105)"><path id="Path_78" fill="url(#linear-gradient-9)" d="M292.685,291.149c.453-.151.2.817,40.166-16.107l1.714,2.3c.164,2.692-.641,4.771-2.115,5.739l-39.316,24.786Z" data-name="Path 78" transform="translate(-292.685 -257.054)"/><path id="Path_79" fill="#f08877" d="M363.25,262.707l.237-19.486a.788.788,0,0,0-.788-.8h0a.788.788,0,0,0-.779.666l-5.283,23.078Z" data-name="Path 79" transform="translate(-321.369 -242.424)"/><path id="Line_6" fill="#dc9c82" d="M-.3,20.784-.476,0,.476,0l.181,20.78Z" data-name="Line 6" transform="translate(42.023 0.488)"/><path id="Line_7" fill="#dc9c82" d="M.18,3.474-.18,2.591,7.276-.441l.359.883Z" data-name="Line 7" transform="translate(4.051 29.886)"/></g><path id="Path_103" fill="url(#linear-gradient-10)" d="M58.709,92.042V82.8H89.855v9.246Z" data-name="Path 103" transform="translate(-22.995 -32.429)"/></g><g id="Group_33" data-name="Group 33" transform="translate(62.898 5.047)"><path id="Path_80" fill="url(#linear-gradient-11)" d="M347.986,211.706l-12.261,4.97a39.659,39.659,0,0,0,17.832,4.569,43.234,43.234,0,0,0,19.112-4.306l-12.795-5.758Z" data-name="Path 80" transform="translate(-334.731 -163.479)"/><path id="Path_81" fill="url(#linear-gradient-12)" d="M368.885,189.795a33.976,33.976,0,0,0-4.536.556c-2.642.491-4.8-.9-5.331.892-.011.036-2.158-1.789-2.158-1.789l-1.1,17.6a14.893,14.893,0,0,0,14.652-.222Z" data-name="Path 81" transform="translate(-343.715 -153.734)"/><path id="Path_82" fill="#472d3c" d="M354.725,184.218s3.19,7.9,14.249,8.456l-.926-10.548Z" data-name="Path 82" transform="translate(-343.253 -150.447)"/><path id="Path_84" fill="url(#linear-gradient-13)" d="M371.786,138.873a62.377,62.377,0,0,1-1.658,14.188c-.811,3.437-3.093,5.838-6.317,7.772l-.587.352a11.32,11.32,0,0,1-11.284.122h0c-3.493-1.988-5.94-4.609-6.693-8.3a91.13,91.13,0,0,1-1.519-14.137s-1.3-14.469,13.829-14.188S371.786,138.873,371.786,138.873Z" data-name="Path 84" transform="translate(-338.308 -124.682)"/><g id="Group_29" data-name="Group 29" transform="translate(0 19.841)"><path id="Path_85" fill="url(#linear-gradient-12)" d="M340.992,169.431c-2.553,2.467-8.915-4.782-6.555-7.676,2.175-2.667,5.265.377,5.265.377l.523,2.72.78,3.661.2.821Z" data-name="Path 85" transform="translate(-333.922 -160.661)"/></g><g id="Group_30" data-name="Group 30" transform="translate(31.598 19.541)"><path id="Path_86" fill="url(#linear-gradient-12)" d="M391.435,169.008c2.7,2.13,9.262-5.758,6.639-8.037s-5.482.717-5.482.717l-.474,2.728-.713,3.673-.186.824Z" data-name="Path 86" transform="translate(-391.219 -160.116)"/></g><g id="Group_32" data-name="Group 32" transform="translate(8.765 14.199)"><path id="Path_89" fill="#0a2043" d="M368.536,167.926a.25.25,0,0,1-.133-.462l.686-.43-.219-1.675a.25.25,0,1,1,.5-.065l.261,1.993-.958.6A.249.249,0,0,1,368.536,167.926Z" data-name="Path 89" transform="translate(-358.212 -157.112)"/><g id="Group_31" data-name="Group 31" transform="translate(6.05 14.244)"><path id="Path_90" fill="#dc5a66" d="M360.786,176.261h8.869s-1,1.454-4.434,1.454C361.513,177.715,360.786,176.261,360.786,176.261Z" data-name="Path 90" transform="translate(-360.786 -175.043)"/><path id="Path_91" fill="#dc5a66" d="M360.786,175.271l2.026-1.048a1.819,1.819,0,0,1,1.4-.058l1.069.411.957-.383a1.819,1.819,0,0,1,1.407.049l2.014,1.028Z" data-name="Path 91" transform="translate(-360.786 -174.053)"/></g><path id="Path_92" fill="#0b2043" d="M355.843,161.042a3.617,3.617,0,0,1-2.062-.68.25.25,0,1,1,.282-.413,2.886,2.886,0,0,0,3.482.016.25.25,0,1,1,.325.38,3.331,3.331,0,0,1-2.027.7Z" data-name="Path 92" transform="translate(-351.658 -154.792)"/><path id="Path_93" fill="#0b2043" d="M378.336,161.042a3.618,3.618,0,0,1-2.062-.68.25.25,0,0,1,.282-.413,2.885,2.885,0,0,0,3.482.017.25.25,0,1,1,.325.38,3.33,3.33,0,0,1-2.027.7Z" data-name="Path 93" transform="translate(-361.747 -154.792)"/><path id="Path_94" fill="#0a2043" d="M373.917,151.351s4.509.234,7.516,2.061c0,0,0-1.894-2.863-2.729A5.18,5.18,0,0,0,373.917,151.351Z" data-name="Path 94" transform="translate(-360.626 -150.43)"/><path id="Path_95" fill="#0a2043" d="M357.332,151.351s-4.509.234-7.516,2.061c0,0,0-1.894,2.863-2.729A5.18,5.18,0,0,1,357.332,151.351Z" data-name="Path 95" transform="translate(-349.816 -150.43)"/></g><path id="Path_98" fill="#091f43" data-name="Path 98" transform="translate(-336.137 -143.653)"/><path id="Path_99" fill="#091f43" d="M393.63,169.508a.648.648,0,0,1-.638-.765,2.844,2.844,0,0,1,.665-1.274,3.725,3.725,0,0,1,3.017-1.138.648.648,0,0,1-.013,1.3h-.107c-2.016,0-2.286,1.339-2.289,1.352A.648.648,0,0,1,393.63,169.508Z" data-name="Path 99" transform="translate(-360.702 -143.653)"/></g><path id="Path_102" fill="url(#radial-gradient)" d="M2145.669,1028.74c-12.531-1.825-6.868,3.772-13.073,5.11s-5.505,9.094-5.505,9.094-3.2-7.293-1.862-13.62,7.884-10.487,13.237-10.609,12.045,1.119,14.113,4.769,5.292,9.849,2.25,19.46S2158.2,1030.565,2145.669,1028.74Z" data-name="Path 102" transform="translate(-2058.816 -1017.425)"/></g><g id="Group_594" data-name="Group 594" transform="translate(0 17.344)"><g id="Group_593" data-name="Group 593"><g id="Group_74" data-name="Group 74" transform="translate(58.136 96.441)"><g id="Group_71" data-name="Group 71" transform="translate(16.434)"><path id="Path_155" fill="#447fad" fill-rule="evenodd" d="M159.858,266.59c-11.085-9.661-19.331,2.612-18.18,14.93,1.092,11.679,12.853,51.754,10.673,68.612h4.5C167.87,328.513,174.048,278.958,159.858,266.59Z" data-name="Path 155" transform="translate(-141.571 -263.115)"/><path id="Path_156" fill="#80bee8" fill-rule="evenodd" d="M157.732,351.778c10.723-33.705-2.851-80.3-2.9-80.454a.651.651,0,0,0-.769-.4.541.541,0,0,0-.469.65c.046.158,13.637,46.8,2.832,80.2Z" data-name="Path 156" transform="translate(-144.105 -264.76)"/></g><g id="Group_72" data-name="Group 72" transform="translate(0 12.736)"><path id="Path_157" fill="#80aae8" fill-rule="evenodd" d="M126.849,299.369c-11.68-6.189-14.626,7.314-10.072,18.486,3.773,9.258,20.446,36.643,26.749,54.238h5.938C149.969,347.777,140.638,306.675,126.849,299.369Z" data-name="Path 157" transform="translate(-114.736 -297.811)"/><path id="Path_158" fill="#3493d1" fill-rule="evenodd" d="M148.835,373.5c-3.864-32.887-25.734-68.631-25.813-68.762a.532.532,0,1,0-.91.552c.078.129,21.809,35.644,25.668,68.209Z" data-name="Path 158" transform="translate(-116.276 -299.219)"/></g><g id="Group_73" data-name="Group 73" transform="translate(25.993 28.804)"><path id="Path_159" fill="#e37979" fill-rule="evenodd" d="M185.9,319.275c11.321-4.946,13.115,7.846,8.086,17.935-3.4,6.827-15.667,24.309-23.927,39.18h-9.425C163.861,353.893,174.2,324.387,185.9,319.275Z" data-name="Path 159" transform="translate(-160.638 -318.178)"/><path id="Path_160" fill="#d2eaf9" fill-rule="evenodd" d="M164.9,377.717c8.037-27.255,26.549-52.942,26.623-53.045a.5.5,0,0,1,.81.578c-.073.1-18.389,25.522-26.408,52.467Z" data-name="Path 160" transform="translate(-161.538 -319.504)"/></g></g></g><g id="Group_75" data-name="Group 75" transform="translate(72.301 174.46)"><rect id="Rectangle_1" width="36.777" height="11.797" fill="#151f42" data-name="Rectangle 1" rx="2.286"/><path id="Path_161" fill="#151f42" fill-rule="evenodd" d="M147.943,389h21.791l5.689,5.135-4.648,17.9a51.111,51.111,0,0,1-11.586,1.5,61.851,61.851,0,0,1-12.288-1.5l-4.648-17.9Z" data-name="Path 161" transform="translate(-140.449 -382.335)"/><path id="Path_162" fill="#01051a" fill-rule="evenodd" d="M175.423,395.5l-.955,3.681H143.209l-.956-3.681Z" data-name="Path 162" transform="translate(-140.449 -383.709)"/></g></g></g></svg>